<?xml version="1.0" encoding="utf-8"?>
<svg version="1.0" xmlns="http://www.w3.org/2000/svg" width="90" height="90" viewBox="0 0 1024 1024" preserveAspectRatio="xMidYMid meet" style="max-width: 90px; max-height: 90px;">
  <g transform="translate(0,1024) scale(0.1,-0.1)">
    <path fill="none" stroke="#000000" stroke-width="200" stroke-linecap="round" stroke-linejoin="round" d="M 3070 9982 C 3070 9977 3028 9970 2978 9967 C 2808 9956 2454 9892 2440 9870 C 2437 9866 2415 9857 2390 9850 C 2321 9832 2166 9779 2160 9771 C 2155 9764 2087 9734 1998 9699 C 1966 9686 1940 9673 1940 9669 C 1940 9665 1898 9641 1846 9615 C 1794 9589 1749 9562 1746 9554 C 1743 9546 1734 9540 1727 9540 C 1719 9540 1694 9527 1672 9510 C 1649 9494 1627 9480 1623 9480 C 1618 9480 1602 9466 1586 9450 C 1570 9433 1553 9420 1548 9420 C 1539 9420 1463 9364 1445 9344 C 1440 9337 1415 9317 1390 9299 C 1308 9238 1048 8968 995 8891 C 979 8867 960 8846 953 8843 C 946 8840 940 8834 940 8828 C 940 8819 895 8754 876 8735 C 864 8724 849 8699 813 8632 C 800 8608 783 8581 774 8573 C 766 8565 746 8528 729 8492 C 713 8455 696 8423 692 8420 C 687 8417 668 8379 649 8335 C 631 8291 610 8249 603 8243 C 597 8236 577 8184 559 8128 C 542 8071 524 8023 521 8020 C 512 8013 486 7922 464 7825 C 454 7781 443 7743 439 7740 C 429 7733 392 7493 380 7360 C 367 7211 367 6956 380 6810 C 395 6654 428 6446 440 6442 C 446 6440 450 6431 450 6422 C 450 6393 510 6166 519 6160 C 524 6157 532 6139 538 6120 C 556 6058 603 5935 610 5930 C 614 5927 632 5891 650 5850 C 668 5809 686 5773 690 5770 C 694 5767 714 5730 735 5688 C 756 5645 776 5610 780 5610 C 785 5610 798 5591 811 5568 C 823 5544 838 5516 844 5505 C 850 5494 867 5472 882 5456 C 896 5440 914 5416 922 5401 C 929 5387 952 5357 972 5335 C 993 5314 1010 5292 1010 5286 C 1010 5281 1025 5263 1042 5246 C 1060 5229 1102 5184 1135 5146 C 1197 5075 1265 5007 1298 4984 C 1309 4977 1333 4956 1352 4938 C 1385 4906 1435 4864 1495 4816 C 1512 4803 1540 4785 1558 4776 C 1575 4767 1590 4756 1590 4751 C 1590 4742 1683 4684 1723 4668 C 1732 4664 1740 4657 1740 4652 C 1740 4647 1779 4624 1828 4600 C 1876 4576 1917 4552 1920 4548 C 1927 4539 2131 4450 2148 4450 C 2154 4450 2160 4446 2160 4442 C 2160 4434 2344 4370 2413 4354 C 2428 4351 2440 4345 2440 4340 C 2440 4323 2803 4256 2958 4244 C 3009 4240 3050 4233 3050 4229 C 3050 4224 4326 4192 5901 4192 L 8753 4192 L 8747 4248 C 8744 4263 8738 4303 8734 4338 C 8731 4372 8723 4400 8719 4400 C 8714 4400 8710 4411 8710 4423 C 8710 4455 8643 4682 8631 4689 C 8626 4693 8612 4722 8600 4754 C 8588 4786 8570 4820 8561 4830 C 8547 4845 8528 4877 8483 4962 C 8475 4978 8465 4990 8461 4990 C 8456 4990 8440 5009 8424 5032 C 8392 5080 8219 5250 8189 5264 C 8179 5269 8170 5277 8170 5281 C 8170 5286 8144 5306 8113 5326 C 8081 5346 8051 5367 8045 5374 C 8035 5387 7884 5461 7843 5474 C 7830 5478 7820 5485 7820 5489 C 7820 5504 7561 5580 7511 5580 C 7499 5580 7490 5584 7490 5589 C 7490 5594 7473 5595 7453 5599 C 7432 5603 6448 5610 5265 5614 C 3715 5618 3101 5630 3065 5638 C 3038 5644 2980 5657 2938 5666 C 2895 5676 2860 5687 2860 5692 C 2860 5696 2854 5700 2846 5700 C 2834 5700 2811 5708 2675 5762 C 2648 5773 2620 5788 2615 5795 C 2609 5802 2589 5815 2570 5824 C 2511 5851 2472 5876 2438 5909 C 2421 5926 2401 5940 2395 5940 C 2389 5940 2371 5954 2355 5970 C 2339 5987 2321 6000 2314 6000 C 2307 6000 2300 6004 2298 6009 C 2294 6020 2171 6157 2143 6183 C 2130 6195 2120 6208 2120 6212 C 2120 6222 2069 6293 2058 6298 C 2055 6300 2035 6336 2014 6378 C 1993 6420 1973 6457 1970 6460 C 1959 6468 1900 6630 1900 6651 C 1900 6661 1896 6670 1891 6670 C 1881 6670 1857 6773 1841 6887 C 1827 6979 1827 7196 1840 7297 C 1854 7401 1880 7520 1889 7520 C 1893 7520 1901 7539 1907 7563 C 1921 7619 1960 7724 1969 7730 C 1973 7733 1994 7771 2015 7815 C 2037 7859 2059 7900 2065 7905 C 2082 7920 2130 7988 2130 7996 C 2130 8000 2140 8012 2153 8024 C 2170 8041 2287 8170 2310 8199 C 2313 8202 2337 8221 2364 8240 C 2391 8259 2423 8285 2437 8297 C 2468 8326 2560 8386 2588 8394 C 2600 8398 2610 8405 2610 8411 C 2610 8421 2706 8466 2790 8496 C 2820 8506 2847 8518 2850 8521 C 2871 8549 3164 8599 3303 8600 L 3380 8600 L 3380 9295 L 3380 9990 L 3225 9990 C 3140 9990 3070 9986 3070 9982 Z"/>
    <path fill="none" stroke="#000000" stroke-width="200" stroke-linecap="round" stroke-linejoin="round" d="M3731 9520 l3 -470 43 45 c24 25 43 48 43 52 0 7 221 221 279 271 21 17 44 32 50 32 6 0 11 5 11 10 0 6 24 26 54 45 29 19 62 42 71 52 10 9 27 23 39 29 12 6 44 23 71 38 28 15 55 32 60 39 11 13 177 97 193 97 6 0 12 5 14 10 3 11 154 80 175 80 6 0 18 7 27 15 15 15 175 71 274 96 28 7 52 16 52 21 0 4 -329 8 -731 8 l-731 0 3 -470z"/>
    <path fill="none" stroke="#000000" stroke-width="200" stroke-linecap="round" stroke-linejoin="round" d="M 5440 9672 C 5440 9668 5410 9659 5373 9652 C 5259 9631 5025 9569 5022 9559 C 5020 9554 5013 9550 5007 9550 C 4987 9550 4735 9467 4730 9459 C 4727 9454 4685 9435 4636 9415 C 4545 9378 4509 9361 4500 9351 C 4497 9348 4461 9328 4420 9306 C 4379 9285 4340 9261 4334 9254 C 4328 9246 4320 9240 4316 9240 C 4294 9240 4160 9132 4068 9038 C 4008 8979 3960 8927 3960 8924 C 3960 8921 3947 8900 3931 8877 C 3916 8854 3900 8825 3896 8813 C 3892 8800 3885 8790 3880 8790 C 3871 8790 3810 8649 3810 8627 C 3810 8618 3806 8610 3800 8608 C 3789 8604 3766 8520 3744 8399 C 3730 8326 3727 8140 3723 7038 L 3717 5760 C 3717 5760 4966.333 5757.833 5591 5757 C 6215.666 5756.167 7468.525 5680.961 7468.525 5680.961 L 7578.526 5681.166 C 7639.526 5666.166 7690.526 5673.846 7691.526 5668.846 C 7693.526 5662.846 7704.051 5662.372 7709.051 5662.372 C 7731.051 5662.372 7930 5597 7930 5588 C 7930 5583 7949 5571 7973 5560 C 8028 5534 8082 5503 8089 5492 C 8092 5487 8122 5466 8154 5444 C 8187 5423 8220 5401 8227 5395 C 8256 5374 8450 5181 8450 5173 C 8450 5169 8470 5145 8495 5121 C 8520 5097 8540 5071 8540 5065 C 8540 5058 8552 5040 8567 5024 C 8581 5009 8607 4971 8623 4940 C 8640 4910 8659 4881 8665 4875 C 8675 4866 8722 4766 8734 4728 C 8742 4703 8761 4706 8795 4737 C 8811 4752 8849 4782 8880 4802 C 8960 4857 9097 4979 9230 5115 C 9268 5154 9313 5200 9331 5218 C 9349 5236 9376 5271 9391 5296 C 9407 5320 9424 5340 9430 5340 C 9435 5340 9448 5357 9459 5378 C 9469 5398 9489 5426 9502 5440 C 9516 5454 9534 5479 9542 5495 C 9576 5563 9596 5595 9606 5602 C 9612 5606 9632 5643 9650 5685 C 9668 5726 9686 5760 9690 5760 C 9694 5760 9712 5802 9731 5853 C 9749 5903 9767 5946 9772 5948 C 9780 5952 9807 6040 9837 6160 C 9847 6201 9858 6237 9861 6240 C 9873 6249 9910 6492 9920 6635 C 9931 6778 9927 6971 9909 7115 C 9893 7244 9867 7395 9860 7400 C 9857 7403 9844 7448 9831 7500 C 9804 7615 9778 7703 9769 7710 C 9763 7715 9714 7843 9702 7885 C 9699 7896 9693 7907 9689 7910 C 9685 7913 9665 7951 9645 7995 C 9625 8039 9606 8077 9602 8080 C 9598 8083 9577 8120 9555 8163 C 9534 8205 9513 8240 9508 8240 C 9504 8240 9489 8261 9473 8288 C 9458 8314 9431 8351 9413 8370 C 9395 8389 9380 8410 9380 8416 C 9380 8422 9360 8447 9335 8471 C 9310 8495 9290 8518 9290 8523 C 9290 8534 9108 8710 9097 8710 C 9092 8710 9079 8721 9069 8734 C 9059 8747 9028 8772 9001 8789 C 8974 8807 8949 8827 8946 8835 C 8943 8843 8936 8850 8930 8850 C 8924 8850 8899 8864 8875 8880 C 8851 8897 8827 8910 8821 8910 C 8815 8910 8803 8918 8793 8929 C 8783 8939 8730 8967 8675 8991 C 8620 9015 8569 9040 8562 9047 C 8549 9059 8334 9130 8307 9130 C 8299 9130 8290 9134 8288 9139 C 8281 9161 7841 9240 7731 9240 C 7708 9240 7690 9245 7687 9253 C 7682 9269 7012 9270 7002 9253 C 6998 9248 6950 9240 6895 9236 C 6678 9220 6239 9156 6232 9138 C 6230 9134 6220 9130 6209 9130 C 6177 9130 5835 9048 5830 9039 C 5827 9035 5804 9026 5780 9021 C 5755 9015 5717 9004 5695 8996 C 5673 8987 5650 8981 5644 8980 C 5637 8980 5624 9013 5615 9053 C 5605 9092 5594 9127 5590 9130 C 5585 9135 5571 9187 5522 9405 C 5513 9444 5503 9477 5500 9480 C 5496 9483 5483 9529 5471 9583 C 5452 9667 5440 9700 5440 9672 Z M 7410 7639 C 7480 7628 7612 7592 7620 7581 C 7623 7578 7660 7557 7704 7536 C 7747 7514 7787 7488 7793 7478 C 7800 7468 7809 7460 7815 7460 C 7840 7459 7990 7299 8019 7242 C 8030 7220 8045 7196 8053 7189 C 8081 7160 8140 6975 8140 6916 C 8140 6902 8145 6890 8150 6890 C 8156 6890 8160 6848 8160 6785 C 8160 6722 8156 6680 8150 6680 C 8145 6680 8140 6669 8140 6656 C 8140 6600 8081 6403 8060 6390 C 8056 6387 8041 6361 8026 6332 C 8011 6303 7988 6270 7975 6258 C 7961 6246 7950 6231 7950 6224 C 7950 6217 7924 6190 7893 6163 C 7861 6137 7833 6112 7830 6108 C 7820 6095 7735 6040 7724 6040 C 7719 6040 7704 6031 7692 6019 C 7664 5994 7549.593 5949.671 7452 5934 C 7346.13 5917 7206 5916 7107 5931 C 7035.964 5941.763 6870 5995 6860 6010 C 6857 6014 6830 6031 6800 6048 C 6769 6065 6733 6089 6720 6102 C 6624 6187 6592 6219 6572 6250 C 6559 6269 6543 6290 6536 6295 C 6520 6308 6450 6448 6450 6466 C 6450 6474 6446 6480 6441 6480 C 6429 6480 6404 6585 6390 6690 C 6382 6751 6382 6804 6389 6877 C 6400 6982 6427 7100 6441 7100 C 6445 7100 6454 7117 6461 7138 C 6487 7221 6530 7280 6640 7389 C 6745 7493 6747 7494 6830 7536 C 6871 7557 6907 7577 6910 7581 C 6917 7590 7007 7617 7070 7629 C 7100 7635 7134 7642 7145 7644 C 7187 7652 7348 7649 7410 7639 Z"/>
    <path fill="none" stroke="#000000" stroke-width="200" stroke-linecap="round" stroke-linejoin="round" d="M 3980 2168 L 3980 290 L 4125 290 C 4205 290 4270 294 4270 299 C 4270 303 4304 310 4345 313 C 4480 325 4751 389 4778 417 C 4785 424 4803 433 4818 437 C 4862 448 4970 498 4970 508 C 4970 514 4978 520 4988 523 C 5022 535 5095 580 5125 608 C 5142 624 5162 641 5172 646 C 5196 659 5360 817 5360 827 C 5360 832 5376 853 5395 874 C 5414 895 5445 940 5463 974 C 5480 1007 5498 1037 5501 1040 C 5512 1049 5539 1106 5561 1167 C 5573 1199 5586 1227 5590 1230 C 5599 1238 5629 1369 5640 1457 C 5647 1507 5650 1979 5648 2788 L 5645 4040 L 4812 4043 L 3980 4045 L 3980 2168 Z"/>
  </g>
</svg>